<svg width="128" height="128" viewBox="0 0 128 128" fill="none" xmlns="http://www.w3.org/2000/svg">
<circle cx="64" cy="64" r="23.5" stroke="url(#paint0_linear)" stroke-width="3"/>
<path d="M57.5785 72C57.4088 72 57.27 71.9467 57.162 71.84C57.054 71.7333 57 71.5962 57 71.4286V56.5714C57 56.4038 57.054 56.2667 57.162 56.16C57.2854 56.0533 57.4242 56 57.5785 56H60.5636C60.7333 56 60.8722 56.0533 60.9802 56.16C61.1036 56.2667 61.1653 56.4038 61.1653 56.5714V62.08H66.8579V56.5714C66.8579 56.4038 66.9118 56.2667 67.0198 56.16C67.1278 56.0533 67.2667 56 67.4364 56H70.4215C70.5912 56 70.73 56.0533 70.838 56.16C70.946 56.2667 71 56.4038 71 56.5714V71.4286C71 71.5962 70.946 71.7333 70.838 71.84C70.73 71.9467 70.5912 72 70.4215 72H67.4364C67.2667 72 67.1278 71.9467 67.0198 71.84C66.9118 71.7333 66.8579 71.5962 66.8579 71.4286V65.7371H61.1653V71.4286C61.1653 71.5962 61.1036 71.7333 60.9802 71.84C60.8722 71.9467 60.7333 72 60.5636 72H57.5785Z" fill="url(#paint1_linear)"/>
<defs>
<linearGradient id="paint0_linear" x1="64" y1="39" x2="64" y2="89" gradientUnits="userSpaceOnUse">
<stop stop-color="white" stop-opacity="0.54"/>
<stop offset="1" stop-color="white"/>
</linearGradient>
<linearGradient id="paint1_linear" x1="64" y1="56" x2="64" y2="72" gradientUnits="userSpaceOnUse">
<stop stop-color="white" stop-opacity="0.5"/>
<stop offset="1" stop-color="white"/>
</linearGradient>
</defs>
</svg>